<svg width="23" height="23" viewBox="0 0 23 23" fill="none" xmlns="http://www.w3.org/2000/svg">
<circle opacity="0.19" cx="11.5" cy="11.5" r="11.5" fill="#7787AD"/>
<g clip-path="url(#clip0_4173_457)">
<path d="M16.8142 9.68006C16.6549 9.63871 16.5597 9.56706 16.4795 9.42305C16.4071 9.29294 16.3936 9.21096 16.4831 9.078C16.7197 8.72725 16.8805 8.33657 16.817 7.90526C16.6966 7.08363 16.1822 6.55999 15.4441 6.25879C14.9101 6.04099 14.4005 6.20247 13.9396 6.50438C13.7956 6.59885 13.6926 6.61631 13.5596 6.50724C13.4798 6.44201 13.375 6.42169 13.3458 6.28944C13.1433 5.37192 12.6126 4.90461 11.6745 4.84793C10.7246 4.7909 9.98966 5.20474 9.7341 6.19249C9.68919 6.36537 9.61363 6.47409 9.45538 6.55999C9.33027 6.62808 9.25328 6.62629 9.13459 6.54752C8.78601 6.31546 8.40427 6.17395 7.97442 6.21209C7.47364 6.25665 7.09262 6.52328 6.75936 6.87367C6.45568 7.1927 6.2379 7.55593 6.21153 8.00934C6.18622 8.44422 6.34269 8.82278 6.57401 9.17852C6.59932 9.21738 6.64922 9.27263 6.63817 9.29758C6.58364 9.41735 6.51342 9.52999 6.44534 9.64334C6.40828 9.70536 6.33556 9.69253 6.27925 9.70608C5.91427 9.7927 5.58065 9.93849 5.3144 10.2108C4.96545 10.568 4.86138 11.0143 4.84356 11.4951C4.80898 12.4283 5.28481 13.0892 6.18658 13.3205C6.35481 13.3637 6.44748 13.446 6.52768 13.5915C6.59362 13.7112 6.60752 13.7886 6.52411 13.9119C6.28388 14.2666 6.1185 14.6598 6.18266 15.0964C6.30313 15.918 6.81781 16.4413 7.55597 16.7425C8.09026 16.9603 8.59995 16.7985 9.06046 16.4962C9.20552 16.4007 9.30033 16.4018 9.4429 16.4902C9.56801 16.5679 9.64286 16.647 9.67173 16.7953C9.71913 17.0373 9.81893 17.263 9.96222 17.4658C10.2944 17.9367 10.771 18.1302 11.3259 18.1552C12.2715 18.1976 13.0086 17.8215 13.262 16.8103C13.3137 16.6035 13.4267 16.5051 13.5924 16.416C13.6762 16.3711 13.7329 16.3647 13.8156 16.4217C14.1442 16.6477 14.5031 16.7939 14.8827 16.7939C15.443 16.7846 15.8533 16.5208 16.2115 16.1583C16.5091 15.8567 16.7322 15.5124 16.7818 15.0775C16.8352 14.6106 16.673 14.2056 16.4268 13.8239C16.4014 13.7847 16.3622 13.744 16.3597 13.7027C16.354 13.6057 16.6071 13.3191 16.7051 13.2974C17.0712 13.2157 17.4059 13.0717 17.6746 12.8019C18.0307 12.4444 18.1372 11.9938 18.1558 11.5076C18.1911 10.5744 17.7149 9.91354 16.8142 9.68077V9.68006ZM16.2689 12.1457C15.911 12.1745 15.6822 12.3278 15.5471 12.6593C15.4437 12.9128 15.2808 13.1366 15.1244 13.3615C14.9273 13.6453 14.9422 13.913 15.1689 14.1753C15.2958 14.3222 15.423 14.468 15.5075 14.6451C15.6198 14.8808 15.5981 15.038 15.4252 15.2283C15.3746 15.2843 15.3204 15.3377 15.2659 15.3901C15.0217 15.625 14.8481 15.6443 14.5562 15.4686C14.4261 15.3901 14.3106 15.2925 14.1969 15.1927C13.9025 14.9349 13.6502 14.9214 13.3269 15.1481C13.0906 15.3139 12.8489 15.4707 12.5834 15.5844C12.3043 15.7042 12.1714 15.9138 12.1525 16.21C12.1425 16.3661 12.1079 16.518 12.0438 16.662C11.9725 16.8217 11.8531 16.9172 11.6784 16.9386C11.5369 16.956 11.3951 16.955 11.2536 16.9411C11.0778 16.9236 10.9581 16.8284 10.8914 16.6645C10.8298 16.514 10.8023 16.3561 10.7906 16.1957C10.7713 15.9323 10.6505 15.7402 10.406 15.6307C10.1205 15.5031 9.856 15.3399 9.60044 15.1606C9.30318 14.952 9.03586 14.9709 8.76462 15.2105C8.6192 15.3388 8.47092 15.4639 8.29485 15.5495C8.06709 15.6603 7.91133 15.6372 7.72314 15.4703C7.29899 15.0943 7.27903 14.8726 7.63154 14.4231C7.69284 14.345 7.76021 14.2719 7.82401 14.196C8.01434 13.9697 8.03786 13.6913 7.87106 13.4503C7.67181 13.1626 7.48968 12.8664 7.34105 12.5488C7.24018 12.3339 7.05377 12.2316 6.82031 12.2109C6.65029 12.1959 6.48348 12.1706 6.32451 12.1032C6.16626 12.0359 6.07288 11.9182 6.06005 11.7486C6.04971 11.6124 6.04935 11.4741 6.05862 11.3379C6.07145 11.1454 6.17731 11.0139 6.35588 10.9426C6.49275 10.8881 6.63568 10.8549 6.78252 10.8467C7.08549 10.83 7.29542 10.6903 7.41697 10.4065C7.53423 10.1324 7.70104 9.88502 7.87106 9.64049C8.06887 9.35568 8.0539 9.08798 7.82864 8.82634C7.70211 8.67948 7.57415 8.53405 7.48968 8.35689C7.37669 8.1202 7.39736 7.96586 7.57023 7.77337C7.60801 7.73131 7.64829 7.69103 7.68856 7.65111C7.98476 7.3581 8.16261 7.34028 8.50942 7.57946C8.62561 7.65966 8.7329 7.75376 8.84125 7.84466C9.08184 8.04642 9.35522 8.06923 9.61007 7.89243C9.88986 7.69816 10.1789 7.52278 10.4876 7.37735C10.6786 7.28716 10.7923 7.13068 10.8244 6.91752C10.8504 6.74499 10.8647 6.57104 10.9242 6.40422C11.0051 6.17609 11.1609 6.05953 11.4015 6.05382C11.4489 6.05275 11.4959 6.05204 11.5433 6.05204C11.9636 6.05275 12.1111 6.17823 12.1792 6.59279C12.1867 6.63948 12.2002 6.68618 12.2002 6.73287C12.2006 7.08612 12.3834 7.29714 12.7028 7.42618C12.9523 7.52706 13.1736 7.68426 13.3943 7.83967C13.689 8.04749 13.9628 8.02966 14.2304 7.79155C14.3791 7.6593 14.532 7.53347 14.7123 7.44579C14.9183 7.34562 15.1005 7.37414 15.2723 7.52991C15.6968 7.91524 15.7182 8.12305 15.3646 8.57754C15.3008 8.65952 15.2299 8.73616 15.1636 8.81601C14.9861 9.02988 14.9586 9.31255 15.1155 9.5389C15.3204 9.8344 15.5057 10.1395 15.6608 10.4643C15.7584 10.6685 15.9388 10.7648 16.1598 10.7901C16.2396 10.7993 16.3195 10.8075 16.3986 10.82C16.8206 10.8874 16.9468 11.0371 16.9457 11.4648C16.9443 11.9282 16.7878 12.1047 16.2689 12.1464V12.1457Z" fill="#7787AD"/>
<path d="M13.5762 10.8225C13.2957 10.2382 12.8605 9.79087 12.296 9.48075C11.7695 9.19167 11.226 9.19488 10.6981 9.48468C10.1813 9.76842 9.77708 10.1766 9.48909 10.6902C9.18256 11.237 9.1904 11.7931 9.50192 12.336C9.78029 12.8204 10.1667 13.205 10.645 13.4934C10.9002 13.6474 11.1796 13.7283 11.4805 13.7283C11.5606 13.7226 11.6412 13.7208 11.7207 13.7105C11.7859 13.7019 11.8515 13.688 11.9139 13.6673C12.7055 13.4053 13.2469 12.8621 13.5973 12.1249C13.8008 11.6968 13.7812 11.2506 13.5759 10.8232L13.5762 10.8225ZM12.4321 11.7696C12.2518 12.0526 12.0187 12.2836 11.7232 12.4479C11.5824 12.5263 11.4373 12.5459 11.2923 12.4636C10.9779 12.285 10.7302 12.0362 10.5416 11.7286C10.5024 11.6644 10.4857 11.5888 10.4821 11.5118C10.4853 11.4053 10.5181 11.3062 10.5758 11.2188C10.7473 10.9597 10.9629 10.7437 11.2263 10.5769C11.4177 10.4557 11.6063 10.4571 11.7952 10.5854C12.04 10.7519 12.2478 10.9558 12.4164 11.1989C12.5455 11.3849 12.5533 11.5792 12.4321 11.7692V11.7696Z" fill="#7787AD"/>
</g>
<defs>
<clipPath id="clip0_4173_457">
<rect width="13.3158" height="13.3158" fill="white" transform="translate(4.8418 4.84277)"/>
</clipPath>
</defs>
</svg>
