<svg width="23" height="23" viewBox="0 0 23 23" fill="none" xmlns="http://www.w3.org/2000/svg">
<circle opacity="0.19" cx="11.5" cy="11.5" r="11.5" fill="#7787AD"/>
<path d="M17.8637 9.88811C17.8477 9.12008 17.4657 8.53864 16.8687 8.11381C15.6727 7.26315 14.4434 6.4598 13.2245 5.64245C12.8217 5.37256 12.4113 5.13499 11.9114 5.11133H11.1142C10.7485 5.14931 10.4011 5.24028 10.0895 5.44686C8.74836 6.33618 7.39959 7.2145 6.09453 8.15579C5.44617 8.62328 5.11448 9.29068 5.11315 10.1C5.10981 12.1635 5.11215 14.2274 5.11181 16.2909C5.11181 16.4652 5.11015 16.6444 5.16888 16.8064C5.5336 17.8137 6.50597 18.0912 7.40893 17.751C8.099 17.4911 8.38597 16.9033 8.39265 16.1916C8.40566 14.8575 8.39365 13.523 8.39799 12.1885C8.39932 11.7287 8.56349 11.5545 9.00196 11.5535C10.6781 11.5495 12.3545 11.5491 14.0307 11.5535C14.4488 11.5545 14.6186 11.7281 14.6266 12.1459C14.634 12.5187 14.6283 12.8916 14.6286 13.2648C14.6293 14.2594 14.6053 15.2543 14.635 16.2483C14.678 17.688 16.0618 18.2315 17.154 17.6664C17.6008 17.4351 17.8197 17.041 17.8891 16.5545V10.1363C17.8371 10.058 17.8751 9.97041 17.8634 9.88811H17.8637ZM16.8293 16.182C16.8286 16.5425 16.6121 16.7807 16.3044 16.7877C15.9901 16.7947 15.7622 16.5472 15.7612 16.176C15.7578 14.7995 15.7645 13.4234 15.7578 12.0469C15.7538 11.2466 15.269 10.6325 14.5165 10.4609C14.3727 10.4282 14.2202 10.4246 14.0717 10.4246C12.3699 10.4222 10.6681 10.4216 8.96626 10.4236C7.91547 10.4249 7.26811 11.0776 7.26678 12.1346C7.26478 13.4694 7.26778 14.8042 7.26544 16.1393C7.26478 16.6085 6.94644 16.8834 6.56236 16.7557C6.3191 16.6751 6.1963 16.4762 6.19597 16.1443C6.1943 15.166 6.1953 14.1877 6.1953 13.2091C6.1953 12.2805 6.20131 11.3519 6.1933 10.4232C6.18763 9.7565 6.4469 9.24903 7.00984 8.87618C8.21179 8.08016 9.39939 7.26281 10.5987 6.46313C11.1873 6.07095 11.8023 6.05296 12.3949 6.44514C13.6382 7.26814 14.8722 8.10615 16.1072 8.94148C16.5897 9.26802 16.8273 9.73517 16.829 10.3119C16.834 12.2685 16.8326 14.2254 16.8296 16.182H16.8293Z" fill="#7787AD"/>
<path d="M10.9754 13.6174C10.9754 13.7744 10.9811 13.9487 10.9741 14.1222C10.9607 14.4558 10.7578 14.6524 10.4205 14.6624C10.2713 14.6667 10.1218 14.6654 9.97267 14.6627C9.61029 14.656 9.39639 14.4588 9.38471 14.1003C9.37404 13.7694 9.3747 13.4375 9.38471 13.1066C9.39506 12.7575 9.59827 12.5475 9.94531 12.5395C10.7225 12.5215 11.0438 12.4856 10.9751 13.6178L10.9754 13.6174Z" fill="#7787AD"/>
<path d="M10.9751 16.7798C10.9751 16.9621 10.9821 17.1443 10.9734 17.3263C10.959 17.6321 10.7578 17.8314 10.4515 17.8457C10.286 17.8534 10.1198 17.8511 9.95398 17.8471C9.61828 17.8387 9.40205 17.6468 9.38837 17.3149C9.37369 16.9594 9.3847 16.6029 9.3867 16.247C9.3867 16.2064 9.39905 16.1654 9.40973 16.1254C9.50383 15.7742 9.81883 15.6546 10.4632 15.7239C10.7825 15.7582 10.9651 15.9548 10.9757 16.283C10.9811 16.4486 10.9767 16.6142 10.9767 16.7798C10.9761 16.7798 10.9757 16.7798 10.9751 16.7798Z" fill="#7787AD"/>
<path d="M12.0487 16.7869C12.0487 16.6213 12.0457 16.4557 12.0501 16.2901C12.0521 16.2165 12.0564 16.1389 12.0804 16.0705C12.1875 15.7653 12.5282 15.6547 13.1262 15.724C13.4235 15.7583 13.6207 15.9399 13.6347 16.2388C13.6518 16.6023 13.6528 16.9679 13.6347 17.3314C13.6191 17.6506 13.4022 17.8369 13.0785 17.8465C12.921 17.8512 12.7632 17.8512 12.606 17.8465C12.2586 17.8369 12.0597 17.6356 12.0494 17.2837C12.0444 17.1181 12.0484 16.9525 12.0484 16.7869H12.0487Z" fill="#7787AD"/>
</svg>
