<svg width="21" height="21" viewBox="0 0 21 21" fill="none" xmlns="http://www.w3.org/2000/svg">
<circle opacity="0.6" cx="10.5" cy="10.5" r="10.5" fill="#1676BF"/>
<g clip-path="url(#clip0_4469_462)">
<path d="M15.7285 8.77257C15.4162 7.81419 14.8822 7.004 14.1312 6.3372C13.8356 6.07669 13.4947 5.99543 13.1204 6.13644C12.7461 6.27506 12.5339 6.55707 12.4862 6.95142C12.4409 7.32186 12.6078 7.60627 12.8724 7.85482C13.7497 8.67936 14.1383 9.69509 14.0096 10.8972C13.7927 12.9168 11.864 14.346 9.86613 13.9755C7.85399 13.6027 6.56661 11.6095 7.06487 9.63295C7.23891 8.93509 7.58936 8.34237 8.12101 7.86199C8.3904 7.61822 8.5549 7.32903 8.51199 6.95859C8.46908 6.56424 8.25928 6.28223 7.88499 6.13883C7.51069 5.99543 7.16739 6.06713 6.87415 6.33481C5.51763 7.56564 4.87393 9.10238 5.02174 10.9355C5.253 13.8034 7.62751 15.9903 10.536 15.9974C10.7387 16.0094 10.9938 15.9807 11.2465 15.9448C14.6342 15.4884 16.787 12.0373 15.7285 8.77496V8.77257Z" fill="#FEFEFE"/>
<path d="M10.4979 9.75503C11.1369 9.75503 11.6065 9.26987 11.6089 8.60068C11.6137 8.02948 11.6089 7.45828 11.6089 6.88946C11.6089 6.31109 11.6113 5.73272 11.6089 5.15674C11.6065 4.49233 11.1249 4 10.4956 4C9.86617 4 9.38697 4.49472 9.38459 5.15913C9.3822 6.3087 9.37982 7.45589 9.38459 8.60546C9.38459 9.27226 9.86378 9.75742 10.5003 9.75742L10.4979 9.75503Z" fill="#FEFEFE"/>
</g>
<defs>
<clipPath id="clip0_4469_462">
<rect width="11" height="12" fill="white" transform="translate(5 4)"/>
</clipPath>
</defs>
</svg>
